<?xml version="1.0" standalone="no"?>
<!DOCTYPE svg PUBLIC "-//W3C//DTD SVG 20010904//EN"
 "http://www.w3.org/TR/2001/REC-SVG-20010904/DTD/svg10.dtd">
<svg version="1.0" xmlns="http://www.w3.org/2000/svg"
 width="990.000000pt" height="429.000000pt" viewBox="0 0 990.000000 429.000000"
 preserveAspectRatio="xMidYMid meet">

<g transform="translate(0.000000,429.000000) scale(0.100000,-0.100000)"
fill="#000000" stroke="none">
<path d="M5885 3970 c-516 -33 -1011 -182 -1612 -484 -347 -175 -553 -242
-773 -253 -199 -9 -334 35 -456 149 -94 88 -146 178 -223 383 -19 52 -3 -113
19 -193 71 -257 222 -413 467 -484 68 -20 101 -23 253 -23 131 0 196 5 260 18
191 41 349 97 560 199 570 276 1075 439 1590 515 175 25 639 25 785 0 109 -19
258 -55 290 -69 l20 -9 -20 17 c-35 29 -198 103 -307 138 -237 78 -563 114
-853 96z"/>
<path d="M3185 2333 c-203 -27 -328 -147 -329 -318 -1 -122 42 -190 221 -346
177 -154 252 -230 264 -267 26 -78 -22 -150 -119 -178 -80 -24 -186 -14 -315
30 -56 19 -103 33 -103 32 -3 -2 18 -211 22 -215 10 -11 194 -41 284 -47 188
-12 322 23 414 107 72 66 100 129 100 229 0 123 -40 183 -242 357 -193 166
-219 191 -237 230 -43 91 26 176 162 198 49 8 172 -9 250 -35 l54 -18 -5 37
c-3 20 -8 69 -12 109 -3 39 -7 72 -8 72 0 0 -50 7 -111 15 -103 14 -222 17
-290 8z"/>
<path d="M9255 2329 c-267 -36 -456 -163 -559 -374 -54 -109 -70 -183 -70
-320 -1 -134 19 -220 76 -327 135 -255 513 -344 1058 -250 l95 17 2 55 c13
317 25 562 29 595 l6 41 -251 0 -251 0 0 -77 c0 -43 -3 -84 -6 -93 -5 -14 8
-15 109 -13 64 1 118 0 120 -3 9 -9 -11 -322 -20 -331 -21 -21 -179 -41 -283
-37 -119 6 -194 29 -263 82 -94 72 -135 158 -144 306 -17 274 149 488 414 535
152 28 289 14 510 -51 22 -6 22 -6 16 97 -3 57 -10 107 -16 110 -5 4 -58 14
-116 24 -129 20 -361 27 -456 14z"/>
<path d="M672 2306 c-3 -6 -23 -45 -43 -86 -77 -160 -538 -1037 -616 -1173 -2
-4 65 -7 150 -7 l154 0 38 83 c20 45 69 148 108 230 l70 147 251 -2 250 -3 57
-160 c31 -88 65 -190 75 -227 l18 -68 149 0 c138 0 149 1 142 18 -40 105 -339
922 -389 1067 l-67 190 -170 1 c-109 0 -173 -4 -177 -10z m236 -398 c40 -117
72 -216 72 -220 0 -5 -81 -8 -180 -8 -99 0 -180 3 -180 8 0 12 204 432 210
432 4 0 39 -96 78 -212z"/>
<path d="M1666 2100 c-14 -504 -33 -857 -52 -1013 l-6 -47 140 0 140 0 6 198
c3 108 10 334 16 502 6 168 10 324 10 348 l0 42 160 0 c123 0 169 -4 198 -16
109 -45 140 -151 76 -262 -48 -82 -168 -130 -296 -118 l-67 6 108 -219 c59
-120 132 -278 162 -350 l54 -131 153 0 153 0 -32 58 c-18 31 -58 102 -89 157
-68 118 -200 363 -200 369 0 3 38 16 84 31 185 56 274 181 264 369 -7 126 -56
199 -168 250 -85 39 -175 47 -506 44 l-302 -3 -6 -215z"/>
<path d="M4283 2206 c-63 -125 -516 -995 -543 -1041 -9 -16 -29 -51 -44 -77
l-27 -48 155 0 156 0 13 32 c8 18 56 122 107 231 l93 197 249 0 249 0 15 -37
c9 -20 44 -122 79 -227 l64 -191 146 -3 c80 -1 145 -1 145 2 0 2 -68 188 -151
412 -83 225 -180 492 -216 594 -36 102 -71 203 -79 225 l-14 40 -171 1 -171 0
-55 -110z m286 -299 c39 -116 71 -215 71 -220 0 -9 -360 -9 -360 1 0 13 205
432 212 432 3 0 38 -96 77 -213z"/>
<path d="M7075 2286 c-2 -17 -7 -80 -10 -141 -8 -148 -73 -912 -85 -1006 -5
-40 -10 -80 -10 -86 0 -10 30 -13 118 -13 l119 0 6 168 c7 185 43 733 53 799
6 41 24 51 24 14 0 -10 25 -101 56 -202 32 -101 94 -317 139 -479 l82 -295
127 0 128 0 191 507 c105 279 193 506 195 503 9 -9 0 -618 -14 -898 l-6 -117
125 0 124 0 7 538 c3 295 9 582 12 637 l6 100 -190 0 -190 0 -17 -55 c-9 -30
-65 -172 -122 -315 -58 -143 -130 -327 -159 -408 -29 -82 -57 -153 -60 -159
-4 -6 -35 92 -70 218 -34 126 -90 313 -123 416 -33 103 -65 214 -71 246 l-12
58 -184 0 -184 0 -5 -30z"/>
<path d="M6240 1625 l0 -75 315 0 315 0 0 75 0 75 -315 0 -315 0 0 -75z"/>
</g>
</svg>
