<?xml version="1.0" standalone="no"?>
<!DOCTYPE svg PUBLIC "-//W3C//DTD SVG 20010904//EN"
 "http://www.w3.org/TR/2001/REC-SVG-20010904/DTD/svg10.dtd">
<svg version="1.0" xmlns="http://www.w3.org/2000/svg"
 width="1036.000000pt" height="415.000000pt" viewBox="0 0 1036.000000 415.000000"
 preserveAspectRatio="xMidYMid meet">

<g transform="translate(0.000000,415.000000) scale(0.100000,-0.100000)"
fill="#000000" stroke="none">
<path d="M5350 619 c0 -18 3 -19 14 -10 8 7 27 16 43 21 26 8 25 8 -14 9 -37
1 -43 -2 -43 -20z"/>
<path d="M5462 625 c-11 -12 -10 -15 3 -15 9 0 23 7 31 15 14 13 13 15 -3 15
-10 -1 -24 -7 -31 -15z"/>
<path d="M363 505 c-47 -49 -46 -93 3 -133 24 -20 51 -31 81 -35 32 -3 53 -13
69 -30 28 -30 30 -43 10 -63 -17 -16 -131 -20 -141 -4 -3 6 -17 10 -31 10 -17
0 -24 -5 -24 -20 0 -11 7 -20 15 -20 8 0 15 -4 15 -10 0 -5 9 -10 20 -10 11 0
20 -4 20 -10 0 -6 27 -10 60 -10 33 0 60 4 60 10 0 6 7 10 15 10 31 0 65 47
65 90 0 22 -4 40 -10 40 -5 0 -10 7 -10 15 0 8 -6 15 -14 15 -7 0 -27 7 -42
15 -16 8 -41 15 -56 15 -36 0 -78 40 -78 74 0 16 5 26 15 26 8 0 15 5 15 10 0
6 23 10 50 10 28 0 50 -4 50 -10 0 -5 14 -10 30 -10 23 0 30 4 30 20 0 13 -7
20 -20 20 -11 0 -20 5 -20 10 0 6 -30 10 -72 9 -70 0 -75 -2 -105 -34z"/>
<path d="M690 355 l0 -185 24 0 c13 0 27 7 30 16 3 9 6 92 6 185 l0 169 -30 0
-30 0 0 -185z"/>
<path d="M883 505 c-44 -46 -44 -86 -2 -126 17 -16 43 -32 58 -35 75 -15 98
-25 111 -50 23 -42 4 -58 -74 -62 -41 -2 -66 1 -66 8 0 5 -13 10 -30 10 -23 0
-30 -4 -30 -20 0 -13 7 -20 20 -20 11 0 20 -4 20 -10 0 -5 9 -10 20 -10 11 0
20 -4 20 -10 0 -6 27 -10 60 -10 33 0 60 4 60 10 0 6 5 10 10 10 6 0 22 11 35
25 40 39 28 135 -17 135 -8 0 -19 5 -25 11 -6 6 -33 15 -59 20 -45 9 -84 36
-84 59 0 6 11 22 25 35 18 19 35 25 70 25 25 0 45 -4 45 -10 0 -5 11 -10 25
-10 18 0 25 5 25 20 0 13 -7 20 -20 20 -11 0 -20 5 -20 10 0 6 -30 10 -72 9
-70 0 -75 -2 -105 -34z"/>
<path d="M1200 520 c0 -17 7 -20 49 -20 35 0 51 -4 55 -16 3 -9 6 -83 6 -165
0 -139 1 -149 19 -149 24 0 30 44 24 188 -6 134 -2 142 81 142 49 0 56 2 56
20 0 19 -7 20 -145 20 -138 0 -145 -1 -145 -20z"/>
<path d="M1576 463 c-8 -96 -8 -256 0 -277 5 -13 25 -16 115 -16 l109 0 0 30
0 30 -84 0 -84 0 -6 35 c-12 61 4 75 84 75 63 0 70 2 70 20 0 18 -7 20 -66 20
-75 0 -94 12 -94 60 0 49 18 60 104 60 69 0 76 2 76 20 0 19 -7 20 -109 20
l-108 0 -7 -77z"/>
<path d="M1920 371 c0 -93 3 -176 6 -185 3 -9 15 -16 25 -16 18 0 19 9 19 121
0 106 2 120 16 115 9 -3 18 -6 20 -6 2 0 4 -6 4 -13 0 -7 9 -19 20 -27 11 -8
20 -23 20 -33 0 -18 27 -67 44 -79 15 -10 36 3 36 23 0 10 4 19 8 19 4 0 13
15 20 33 17 45 49 80 67 73 12 -4 15 -27 15 -116 0 -103 1 -110 20 -110 19 0
20 7 20 185 l0 185 -29 0 c-22 0 -31 -6 -41 -30 -7 -16 -16 -30 -21 -30 -5 0
-9 -8 -9 -19 0 -10 -9 -30 -20 -44 -11 -14 -20 -28 -20 -32 0 -4 -8 -18 -19
-31 -18 -22 -19 -23 -35 -5 -9 9 -16 23 -16 29 0 7 -4 12 -10 12 -5 0 -10 7
-10 15 0 8 -4 15 -10 15 -5 0 -10 13 -10 28 0 16 -8 34 -20 42 -11 8 -20 22
-20 32 0 14 -8 18 -35 18 l-35 0 0 -169z"/>
<path d="M2510 520 c0 -11 -4 -20 -10 -20 -5 0 -10 -9 -10 -20 0 -11 -4 -20
-10 -20 -5 0 -10 -13 -10 -28 0 -15 -4 -32 -8 -38 -14 -15 -82 -191 -82 -211
0 -7 7 -13 16 -13 17 0 44 23 44 39 0 5 5 22 12 36 10 23 16 25 83 25 76 0 95
-9 95 -48 0 -31 22 -52 54 -52 30 0 32 5 11 26 -8 9 -17 27 -21 42 -3 15 -9
35 -15 44 -5 10 -9 29 -9 43 0 14 -3 25 -7 25 -11 0 -33 50 -33 72 0 10 -4 18
-10 18 -5 0 -10 14 -10 30 0 17 -4 30 -10 30 -5 0 -10 9 -10 20 0 16 -7 20
-30 20 -23 0 -30 -4 -30 -20z m46 -74 c8 -8 14 -28 14 -45 0 -17 5 -31 10 -31
6 0 10 -14 10 -31 l0 -30 -52 3 -53 3 3 35 c1 19 7 39 12 44 6 6 10 16 10 23
0 12 20 42 28 43 2 0 10 -6 18 -14z"/>
<path d="M2930 355 l0 -185 85 0 c50 0 85 4 85 10 0 6 11 10 25 10 14 0 25 5
25 10 0 6 9 10 20 10 11 0 20 6 20 13 0 7 9 23 20 35 17 18 20 35 20 107 0 84
-1 86 -35 120 -19 19 -41 35 -50 35 -8 0 -15 5 -15 10 0 6 -40 10 -100 10
l-100 0 0 -185z m180 135 c0 -5 9 -10 20 -10 13 0 20 -7 20 -20 0 -11 5 -20
10 -20 6 0 10 -9 10 -20 0 -11 5 -20 10 -20 6 0 10 -18 10 -40 0 -22 -4 -40
-10 -40 -5 0 -10 -9 -10 -20 0 -12 -11 -32 -25 -46 -22 -22 -32 -25 -88 -22
l-62 3 -3 118 c-2 84 1 121 10 132 15 16 108 21 108 5z"/>
<path d="M3340 355 l0 -185 120 0 120 0 0 30 0 30 -90 0 -90 0 0 55 0 55 80 0
c62 0 80 3 80 14 0 20 -23 26 -96 26 l-64 0 0 60 0 60 90 0 c83 0 90 1 90 20
0 19 -7 20 -120 20 l-120 0 0 -185z"/>
<path d="M3920 530 c0 -5 -5 -10 -10 -10 -13 0 -54 -40 -68 -66 -11 -21 -16
-67 -13 -134 1 -34 8 -53 30 -77 16 -18 34 -33 40 -33 6 0 11 -4 11 -10 0 -5
7 -10 15 -10 8 0 15 -4 15 -10 0 -5 18 -10 40 -10 22 0 40 5 40 10 0 6 9 10
20 10 11 0 20 5 20 10 0 19 39 10 45 -10 3 -11 13 -20 21 -20 11 0 14 19 14
90 l0 90 -60 0 c-33 0 -60 -4 -60 -10 0 -5 12 -10 26 -10 25 0 54 -20 54 -37
0 -4 -11 -20 -24 -35 -21 -25 -30 -28 -85 -28 -34 0 -61 4 -61 10 0 6 -6 10
-13 10 -19 0 -47 65 -47 110 0 61 29 120 59 120 6 0 11 5 11 10 0 6 22 10 48
10 36 0 51 -5 62 -20 8 -11 20 -20 27 -20 7 0 13 -5 13 -11 0 -6 7 -4 15 5 12
12 13 20 3 40 -6 14 -19 26 -30 26 -10 0 -18 5 -18 10 0 6 -30 10 -70 10 -40
0 -70 -4 -70 -10z"/>
<path d="M4250 355 l0 -185 120 0 120 0 0 30 0 30 -90 0 -90 0 0 55 0 55 69 0
c50 0 70 4 74 14 9 22 -2 26 -75 26 l-68 0 0 60 0 60 90 0 c83 0 90 1 90 20 0
19 -7 20 -120 20 l-120 0 0 -185z"/>
<path d="M4613 505 c-25 -26 -33 -44 -33 -70 0 -19 5 -35 10 -35 6 0 10 -6 10
-13 0 -16 59 -43 111 -51 34 -6 79 -44 79 -67 0 -27 -30 -39 -99 -39 -41 0
-71 4 -71 10 0 6 -9 10 -20 10 -13 0 -20 -7 -20 -20 0 -13 7 -20 18 -20 10 0
24 -9 32 -20 12 -16 26 -20 77 -20 35 0 63 4 63 10 0 6 7 10 15 10 8 0 15 5
15 10 0 6 5 10 11 10 21 0 39 29 39 63 0 51 -58 96 -145 111 -21 4 -45 15 -52
24 -17 23 -16 60 1 78 17 16 116 20 116 4 0 -5 11 -10 25 -10 14 0 25 2 25 4
0 16 -14 36 -26 36 -8 0 -14 5 -14 10 0 6 -29 10 -67 9 -64 0 -70 -2 -100 -34z"/>
<path d="M4910 520 c0 -18 7 -20 54 -20 40 0 55 -4 60 -16 3 -9 6 -83 6 -165
l0 -149 25 0 25 0 0 165 0 165 60 0 c53 0 60 2 60 20 0 19 -7 20 -145 20 -138
0 -145 -1 -145 -20z"/>
<path d="M5396 528 c-3 -12 -11 -35 -38 -110 -12 -36 -30 -80 -52 -130 -8 -18
-17 -43 -20 -55 -3 -13 -9 -32 -12 -43 -4 -16 -1 -20 20 -20 16 0 26 6 26 15
0 8 8 30 17 50 l17 35 78 0 78 0 0 -30 c0 -16 4 -30 9 -30 5 0 13 -9 16 -20 9
-28 55 -28 55 0 0 11 -4 20 -10 20 -5 0 -10 9 -10 20 0 11 -4 20 -10 20 -5 0
-10 14 -10 30 0 17 -4 30 -10 30 -5 0 -10 15 -10 33 0 21 -7 38 -20 47 -14 10
-20 26 -20 52 0 21 -4 38 -10 38 -5 0 -10 14 -10 30 0 28 -3 30 -35 30 -20 0
-37 -5 -39 -12z m54 -98 c0 -16 5 -30 10 -30 6 0 10 -13 10 -29 0 -16 6 -32
13 -34 24 -10 -17 -27 -67 -27 -47 0 -48 1 -43 28 13 66 39 122 58 122 14 0
19 -7 19 -30z"/>
<path d="M5760 530 c0 -5 -7 -10 -15 -10 -22 0 -65 -45 -65 -69 0 -11 -4 -23
-10 -26 -5 -3 -10 -33 -10 -65 0 -32 5 -62 10 -65 6 -3 10 -13 10 -21 0 -18
44 -64 62 -64 8 0 20 -9 28 -20 11 -15 26 -20 60 -20 34 0 49 5 60 20 8 11 24
20 35 20 15 0 29 17 53 63 30 58 43 127 23 127 -5 0 -11 13 -14 28 -7 34 -58
92 -81 92 -9 0 -16 5 -16 10 0 6 -28 10 -65 10 -37 0 -65 -4 -65 -10z m130
-50 c8 -11 20 -20 27 -20 7 0 13 -11 13 -24 0 -14 5 -28 10 -31 6 -3 10 -24
10 -45 0 -21 -4 -42 -10 -45 -5 -3 -10 -14 -10 -24 0 -59 -136 -86 -185 -36
-22 21 -25 33 -25 100 0 72 2 77 33 110 27 28 39 34 77 34 35 1 49 -4 60 -19z"/>
<path d="M6260 355 c0 -178 1 -185 20 -185 18 0 20 7 20 56 0 70 13 84 80 84
98 0 152 61 128 144 -7 22 -24 51 -38 63 -22 20 -36 23 -117 23 l-93 0 0 -185z
m190 115 c13 -32 8 -84 -11 -107 -17 -19 -119 -18 -119 2 0 8 -4 15 -10 15
-14 0 -12 88 3 105 7 9 33 14 68 15 54 0 57 -2 69 -30z"/>
<path d="M6710 523 c0 -10 -9 -33 -20 -51 -11 -18 -20 -44 -20 -57 0 -14 -4
-25 -10 -25 -5 0 -10 -13 -10 -30 0 -16 -4 -30 -10 -30 -5 0 -10 -9 -10 -20 0
-11 -4 -20 -10 -20 -5 0 -10 -13 -10 -29 0 -16 -4 -31 -8 -33 -5 -1 -12 -15
-16 -31 -6 -24 -4 -27 19 -27 18 0 25 5 25 20 0 11 5 20 10 20 6 0 10 7 10 16
0 32 27 44 95 44 71 0 95 -12 95 -48 0 -36 12 -52 36 -52 20 0 24 5 24 30 0
17 -4 30 -10 30 -5 0 -10 9 -10 20 0 11 -4 20 -10 20 -5 0 -10 14 -10 31 0 17
-9 42 -20 56 -11 14 -20 34 -20 44 0 9 -6 30 -14 46 -8 15 -20 43 -27 61 -9
26 -17 32 -40 32 -21 0 -29 -5 -29 -17z m58 -88 c7 -14 12 -34 12 -45 0 -10 5
-22 10 -25 6 -3 10 -17 10 -31 0 -23 -3 -24 -55 -24 l-55 0 0 38 c0 21 9 48
20 62 11 14 20 31 20 38 0 22 26 13 38 -13z"/>
<path d="M6960 520 c0 -17 7 -20 46 -20 71 0 74 -6 74 -179 l0 -151 25 0 c33
0 37 21 33 178 -2 92 0 133 9 141 7 6 33 11 58 11 38 0 45 3 45 20 0 19 -7 20
-145 20 -138 0 -145 -1 -145 -20z"/>
<path d="M7350 371 c0 -93 3 -176 6 -185 3 -9 15 -16 25 -16 16 0 19 8 19 56
0 35 5 61 14 70 30 30 106 7 106 -33 0 -13 6 -26 14 -29 8 -3 20 -19 26 -35 9
-21 19 -29 37 -29 20 0 24 4 18 17 -4 10 -10 27 -13 38 -3 11 -14 27 -24 36
-24 22 -23 61 2 77 11 7 20 20 20 30 0 10 5 23 11 29 16 16 -10 93 -41 120
-22 21 -36 23 -122 23 l-98 0 0 -169z m198 104 c7 -14 12 -37 12 -50 0 -13 -5
-36 -12 -50 -10 -22 -17 -25 -64 -25 -79 0 -84 4 -84 66 0 71 12 83 81 84 50
0 57 -3 67 -25z"/>
<path d="M7730 355 l0 -185 30 0 30 0 0 185 0 185 -30 0 -30 0 0 -185z"/>
<path d="M7900 355 l0 -185 25 0 25 0 0 104 c0 123 4 140 31 125 10 -5 19 -18
19 -27 0 -10 9 -28 20 -40 11 -12 20 -28 20 -37 0 -19 23 -45 40 -45 18 0 40
27 40 49 0 12 5 21 10 21 6 0 10 5 10 12 0 18 50 79 61 73 5 -4 9 -58 9 -121
0 -106 1 -114 19 -114 17 0 20 9 25 62 3 35 5 118 3 186 l-2 122 -28 0 c-17 0
-30 -7 -34 -17 -4 -10 -9 -20 -13 -23 -4 -3 -19 -31 -34 -62 -16 -32 -32 -58
-37 -58 -5 0 -9 -9 -9 -19 0 -10 -7 -22 -16 -25 -22 -9 -24 -8 -24 9 0 9 -9
25 -20 37 -11 12 -20 29 -20 39 0 9 -7 22 -15 29 -8 7 -15 20 -15 30 0 27 -35
60 -64 60 l-26 0 0 -185z"/>
<path d="M8470 530 c0 -5 -9 -10 -19 -10 -11 0 -23 -9 -26 -20 -3 -11 -13 -20
-21 -20 -8 0 -14 -10 -14 -24 0 -14 -4 -28 -10 -31 -5 -3 -10 -35 -10 -71 0
-36 4 -64 10 -64 6 0 10 -12 10 -26 0 -17 6 -28 20 -31 11 -3 20 -9 20 -14 0
-5 7 -9 15 -9 8 0 15 -4 15 -10 0 -5 7 -10 15 -10 8 0 15 -4 15 -10 0 -5 20
-10 45 -10 25 0 45 5 45 10 0 6 7 10 15 10 9 0 36 20 60 45 l45 44 0 76 c0 42
-6 85 -12 97 -20 35 -56 68 -73 68 -8 0 -15 5 -15 10 0 6 -28 10 -65 10 -37 0
-65 -4 -65 -10z m110 -40 c0 -5 9 -10 20 -10 13 0 20 -7 20 -20 0 -11 5 -20
10 -20 6 0 10 -9 10 -20 0 -11 5 -20 10 -20 6 0 10 -20 10 -45 0 -25 -4 -45
-10 -45 -5 0 -10 -7 -10 -15 0 -9 -11 -27 -25 -40 -20 -21 -34 -25 -80 -25
-30 0 -55 5 -55 10 0 6 -5 10 -11 10 -26 0 -59 59 -59 106 0 42 11 65 54 110
25 26 39 33 74 33 23 1 42 -3 42 -9z"/>
<path d="M8810 355 l0 -185 30 0 30 0 0 120 c0 66 4 120 8 120 13 0 52 -36 52
-46 0 -5 9 -16 20 -24 11 -8 20 -20 20 -27 0 -7 4 -13 10 -13 5 0 22 -19 37
-42 36 -56 68 -88 88 -88 13 0 15 25 15 185 l0 185 -25 0 -25 0 0 -115 c0
-108 -1 -115 -20 -115 -11 0 -20 3 -20 8 0 4 -14 21 -30 39 -17 18 -30 36 -30
42 0 5 -9 13 -20 16 -11 3 -20 14 -20 23 0 10 -9 24 -20 32 -11 8 -20 20 -20
28 0 22 -26 42 -54 42 l-26 0 0 -185z"/>
<path d="M9240 355 l0 -185 24 0 c21 0 24 5 30 61 3 34 6 118 6 185 l0 124
-30 0 -30 0 0 -185z"/>
<path d="M9523 525 c-7 -8 -13 -21 -13 -30 0 -8 -4 -15 -10 -15 -5 0 -10 -13
-10 -30 0 -16 -4 -30 -10 -30 -5 0 -10 -11 -10 -25 0 -14 -4 -25 -10 -25 -5 0
-10 -11 -10 -25 0 -14 -4 -25 -10 -25 -5 0 -10 -16 -10 -35 0 -19 -4 -35 -10
-35 -5 0 -10 -9 -10 -20 0 -11 -4 -20 -10 -20 -5 0 -10 -9 -10 -20 0 -16 7
-20 30 -20 27 0 30 3 30 30 0 17 5 30 10 30 6 0 10 9 10 20 0 18 7 20 75 20
74 0 76 0 95 -32 11 -18 20 -41 20 -50 0 -11 8 -18 20 -18 24 0 27 34 6 82 -8
18 -21 50 -30 70 -9 20 -19 50 -22 67 -4 17 -10 31 -15 31 -5 0 -9 14 -9 30 0
17 -4 30 -10 30 -5 0 -10 7 -10 16 0 19 -24 44 -42 44 -7 -1 -19 -7 -25 -15z
m54 -92 c26 -72 34 -104 28 -113 -3 -5 -31 -10 -61 -10 -47 0 -54 2 -54 20 0
11 5 20 10 20 6 0 10 16 10 35 0 19 4 35 9 35 5 0 11 9 14 20 7 29 33 25 44
-7z"/>
<path d="M9800 355 l0 -185 119 0 c99 0 120 3 125 16 12 31 -19 44 -103 44
l-81 0 0 155 0 155 -30 0 -30 0 0 -185z"/>
</g>
</svg>
