<?xml version="1.0" standalone="no"?>
<!DOCTYPE svg PUBLIC "-//W3C//DTD SVG 20010904//EN"
 "http://www.w3.org/TR/2001/REC-SVG-20010904/DTD/svg10.dtd">
<svg version="1.0" xmlns="http://www.w3.org/2000/svg"
 width="902.000000pt" height="337.000000pt" viewBox="0 0 902.000000 337.000000"
 preserveAspectRatio="xMidYMid meet">

<g transform="translate(0.000000,337.000000) scale(0.100000,-0.100000)"
fill="#000000" stroke="none">
<path d="M1205 2906 c0 -110 -4 -172 -12 -189 -12 -25 -23 -50 -37 -87 -9 -22
-29 -52 -46 -70 -8 -8 -29 -33 -45 -55 -16 -22 -40 -50 -52 -61 -13 -12 -23
-24 -23 -28 0 -4 -10 -17 -22 -30 -13 -13 -39 -42 -58 -66 -19 -24 -45 -53
-57 -66 -13 -13 -23 -26 -23 -29 0 -3 35 -5 78 -5 72 0 132 15 132 33 0 4 8 7
18 7 9 0 35 7 57 15 22 8 61 14 88 15 26 0 47 5 47 11 0 20 362 -6 433 -31 17
-5 43 -10 58 -10 16 0 29 -4 29 -10 0 -5 7 -10 15 -10 8 0 15 4 15 9 0 5 -7
14 -15 21 -8 7 -15 19 -15 26 0 8 -3 14 -8 14 -4 0 -12 9 -17 19 -6 11 -19 36
-30 58 -10 21 -27 47 -37 57 -10 11 -20 28 -24 38 -3 10 -10 18 -15 18 -5 0
-9 5 -9 11 0 11 -50 82 -62 87 -5 2 -8 12 -8 23 0 10 -4 19 -8 19 -4 0 -16 15
-27 33 -10 17 -21 34 -24 37 -3 3 -19 23 -36 45 -16 21 -36 47 -45 56 -17 18
-32 37 -75 94 -16 22 -45 56 -65 76 -19 20 -44 48 -55 62 l-21 26 1 -163z"/>
<path d="M6560 2175 l0 -136 283 5 c155 2 289 4 297 5 8 0 158 -2 333 -5 174
-3 328 -3 341 0 23 6 23 6 8 41 -9 19 -20 35 -24 35 -4 0 -8 5 -8 10 0 14 -96
110 -110 110 -5 0 -10 4 -10 8 0 10 -71 42 -93 42 -10 0 -17 5 -17 10 0 7
-173 10 -500 10 l-500 0 0 -135z"/>
<path d="M8140 2175 l0 -135 265 0 265 0 0 135 0 135 -265 0 -265 0 0 -135z"/>
<path d="M3610 2165 l0 -125 284 0 c157 0 287 4 290 8 5 8 -65 124 -95 156
-11 11 -21 28 -25 38 -3 10 -10 18 -15 18 -5 0 -9 7 -9 15 0 13 -31 15 -215
15 l-215 0 0 -125z"/>
<path d="M4562 2168 l3 -123 163 -3 162 -2 0 125 0 125 -165 0 -166 0 3 -122z"/>
<path d="M2543 2248 c-12 -21 -42 -111 -43 -130 0 -10 -4 -18 -10 -18 -5 0
-10 -13 -10 -30 l0 -30 311 0 311 0 -7 48 c-4 26 -11 49 -16 50 -5 2 -9 17 -9
33 0 16 -4 29 -10 29 -5 0 -10 14 -10 30 l0 30 -249 0 c-189 0 -252 -3 -258
-12z"/>
<path d="M5466 2220 c-9 -22 -16 -49 -16 -60 0 -11 -4 -20 -10 -20 -5 0 -10
-13 -10 -28 0 -15 -5 -33 -11 -39 -29 -29 5 -33 307 -33 273 0 305 2 311 16 3
9 1 25 -5 35 -7 10 -12 30 -12 43 0 14 -4 28 -10 31 -5 3 -10 15 -10 25 0 11
-5 31 -12 45 l-11 25 -248 0 -247 0 -16 -40z"/>
<path d="M682 2045 c-12 -14 -22 -30 -22 -35 0 -6 -4 -10 -9 -10 -5 0 -12 -8
-15 -18 -4 -10 -14 -27 -24 -38 -25 -28 -72 -102 -72 -114 0 -5 -4 -10 -10
-10 -5 0 -10 -7 -10 -15 0 -8 -4 -15 -8 -15 -5 0 -17 -20 -28 -45 -10 -25 -21
-45 -25 -45 -4 0 -15 -27 -25 -60 -11 -33 -22 -60 -26 -60 -5 0 -8 -13 -8 -29
0 -17 -4 -32 -9 -35 -32 -20 -32 -372 0 -392 5 -3 9 -18 9 -35 0 -16 4 -29 10
-29 5 0 12 -16 16 -35 3 -19 10 -35 15 -35 5 0 9 -7 9 -15 0 -8 5 -15 10 -15
6 0 10 -9 10 -20 0 -11 4 -20 9 -20 5 0 13 -9 16 -21 14 -42 174 -202 219
-218 6 -2 13 -7 16 -10 11 -14 60 -41 75 -41 8 0 15 -4 15 -10 0 -5 11 -10 25
-10 14 0 25 -4 25 -9 0 -10 68 -29 133 -38 20 -3 40 -9 43 -14 7 -12 299 -12
338 0 17 5 65 17 106 27 41 9 79 21 85 25 5 5 19 9 32 9 13 0 23 3 23 8 0 4
21 16 48 26 26 11 49 22 52 25 3 3 30 22 60 42 62 40 170 146 170 166 0 7 3
13 8 13 4 0 16 17 27 38 11 20 22 39 25 42 9 9 40 104 40 123 0 9 5 17 10 17
6 0 10 16 10 35 0 19 4 35 9 35 30 0 30 397 0 416 -5 3 -9 18 -9 34 0 16 -4
32 -10 35 -5 3 -10 16 -10 28 0 12 -7 35 -15 51 -8 15 -15 37 -15 47 0 11 -4
19 -8 19 -4 0 -16 23 -27 50 -11 28 -23 50 -27 50 -4 0 -8 6 -8 13 0 6 -15 41
-33 77 l-32 65 -45 0 -45 0 -3 -125 c-1 -68 -7 -129 -11 -133 -5 -5 -28 9 -53
35 -23 24 -56 50 -73 58 -16 8 -32 17 -35 20 -12 12 -82 40 -100 40 -11 0 -20
5 -20 10 0 6 -16 10 -35 10 -19 0 -35 5 -35 10 0 6 -26 10 -59 10 -33 0 -63
-4 -66 -10 -3 -5 -13 -10 -21 -10 -18 0 -44 -24 -44 -39 0 -6 -4 -11 -10 -11
-5 0 -10 -13 -10 -29 0 -30 37 -76 71 -86 10 -4 19 -11 19 -16 0 -5 7 -9 15
-9 8 0 15 -4 15 -8 0 -5 19 -17 43 -28 23 -10 44 -21 47 -24 3 -3 31 -19 62
-35 32 -17 58 -33 58 -37 0 -5 5 -8 12 -8 6 0 26 -11 44 -25 18 -14 37 -25 43
-25 6 0 11 -4 11 -10 0 -5 6 -10 14 -10 8 0 16 -3 18 -8 2 -4 28 -28 58 -52
77 -63 89 -77 120 -145 40 -86 50 -132 50 -220 0 -73 -10 -125 -31 -167 -5
-10 -9 -24 -9 -32 0 -8 -3 -16 -7 -18 -5 -2 -17 -21 -27 -43 -32 -65 -161
-186 -240 -224 -37 -18 -84 -35 -105 -38 -20 -3 -42 -10 -49 -16 -19 -15 -380
-13 -395 2 -6 6 -27 11 -46 11 -20 0 -54 5 -76 11 -22 6 -51 13 -65 15 -14 3
-34 9 -45 14 -11 4 -39 13 -62 20 l-43 13 0 226 1 226 28 -31 c35 -39 134
-114 149 -114 7 0 12 -3 12 -7 0 -5 21 -16 48 -26 26 -10 55 -23 64 -28 10 -5
26 -9 36 -9 10 0 23 -5 29 -11 14 -14 216 -15 221 0 2 6 8 11 14 11 13 0 38
26 38 39 0 6 5 11 10 11 14 0 12 56 -2 82 -32 53 -75 85 -253 184 -27 15 -66
36 -85 47 -90 50 -240 190 -240 224 0 7 -4 13 -10 13 -5 0 -10 9 -10 20 0 11
-4 20 -9 20 -5 0 -12 13 -16 30 -4 16 -11 32 -16 35 -5 4 -9 22 -9 41 0 19 -4
34 -10 34 -6 0 -10 38 -10 95 0 57 4 95 10 95 6 0 10 9 10 20 0 22 29 89 48
108 19 20 5 32 -37 32 -27 0 -43 -7 -59 -25z"/>
<path d="M2450 1976 c0 -14 -4 -28 -10 -31 -5 -3 -10 -17 -10 -30 0 -13 -4
-27 -10 -30 -35 -21 19 -25 366 -25 l376 0 -5 28 c-13 63 -21 87 -33 99 -10
10 -90 13 -343 13 l-331 0 0 -24z"/>
<path d="M3610 1930 l0 -70 355 0 c230 0 355 4 355 10 0 6 -4 10 -10 10 -5 0
-10 7 -10 15 0 8 -4 15 -9 15 -5 0 -13 10 -17 22 -3 12 -17 32 -30 45 l-23 23
-306 0 -305 0 0 -70z"/>
<path d="M4560 1930 l0 -70 165 0 165 0 0 70 0 70 -165 0 -165 0 0 -70z"/>
<path d="M5392 1988 c-7 -7 -12 -22 -12 -35 0 -13 -4 -23 -9 -23 -5 0 -11 -16
-13 -35 l-4 -35 380 0 c296 0 377 3 368 12 -7 7 -12 22 -12 34 0 13 -4 26 -10
29 -5 3 -10 19 -10 36 l0 29 -333 0 c-246 0 -336 -3 -345 -12z"/>
<path d="M6560 1930 l0 -70 275 0 275 0 0 70 0 70 -275 0 -275 0 0 -70z"/>
<path d="M7300 1990 c0 -5 3 -10 8 -10 9 0 32 -49 32 -71 0 -50 -6 -49 272
-49 l261 0 -7 38 c-3 20 -6 52 -6 70 l0 32 -280 0 c-180 0 -280 -4 -280 -10z"/>
<path d="M8140 1930 l0 -70 265 0 265 0 0 70 0 70 -265 0 -265 0 0 -70z"/>
<path d="M2384 1780 c-4 -22 -11 -43 -15 -46 -5 -3 -9 -14 -9 -25 0 -19 11
-19 429 -19 l429 0 -5 23 c-2 12 -9 31 -13 42 -5 11 -10 29 -12 40 -3 20 -12
20 -400 23 l-398 2 -6 -40z"/>
<path d="M3610 1755 l0 -65 418 1 c229 0 411 3 405 6 -7 2 -13 9 -13 15 0 5
-11 24 -25 42 -14 18 -25 38 -25 43 0 6 -7 14 -16 17 -9 3 -180 6 -380 6
l-364 0 0 -65z"/>
<path d="M4560 1755 l0 -65 165 0 165 0 0 65 0 65 -165 0 -165 0 0 -65z"/>
<path d="M5322 1787 c-7 -18 -12 -41 -12 -50 0 -9 -4 -17 -10 -17 -5 0 -10 -7
-10 -15 0 -13 55 -15 435 -15 403 0 460 3 425 25 -5 3 -10 17 -10 30 0 13 -4
27 -10 30 -5 3 -10 15 -10 26 0 18 -11 19 -393 19 l-393 0 -12 -33z"/>
<path d="M6560 1755 l0 -65 275 0 275 0 0 65 0 65 -275 0 -275 0 0 -65z"/>
<path d="M7340 1805 c0 -8 -4 -15 -10 -15 -5 0 -10 -6 -10 -12 -1 -15 -35 -58
-47 -58 -4 0 -17 -7 -27 -15 -18 -13 14 -15 277 -15 257 0 297 2 297 15 0 8 5
15 10 15 6 0 10 11 10 25 0 14 5 25 10 25 6 0 10 11 10 25 l0 25 -260 0 c-224
0 -260 -2 -260 -15z"/>
<path d="M8140 1755 l0 -65 265 0 265 0 0 65 0 65 -265 0 -265 0 0 -65z"/>
<path d="M2326 1607 c-9 -23 -16 -50 -16 -60 0 -9 -4 -17 -10 -17 -5 0 -10 -4
-10 -10 0 -6 61 -10 164 -10 l164 0 18 48 c21 57 34 74 34 44 0 -12 5 -22 10
-22 6 0 10 -9 10 -21 0 -47 10 -49 309 -49 181 0 281 4 281 10 0 6 -4 10 -10
10 -5 0 -10 13 -10 29 0 17 -4 33 -10 36 -5 3 -10 17 -10 31 l0 24 -449 0
-448 0 -17 -43z"/>
<path d="M3610 1580 l0 -70 640 0 640 0 0 70 0 70 -165 0 -165 0 0 -61 c0 -54
-2 -60 -15 -49 -8 7 -15 17 -15 23 0 5 -8 17 -17 26 -10 9 -23 25 -29 36 -11
19 -24 20 -443 23 l-431 2 0 -70z"/>
<path d="M5265 1610 c-4 -22 -11 -42 -16 -46 -5 -3 -9 -16 -9 -30 l0 -24 162
2 162 3 11 45 c6 25 14 44 18 43 4 -2 12 -3 17 -3 6 0 10 -8 10 -18 0 -10 6
-30 13 -45 l12 -27 283 0 c272 0 282 1 282 19 0 11 -4 23 -10 26 -5 3 -10 15
-10 25 0 11 -5 31 -12 45 l-11 25 -448 0 -447 0 -7 -40z"/>
<path d="M6560 1580 l0 -70 545 0 c357 0 545 3 545 10 0 6 5 10 10 10 6 0 18
6 26 13 28 23 104 99 104 103 0 2 -277 4 -615 4 l-615 0 0 -70z"/>
<path d="M8132 1583 l3 -68 268 -3 267 -2 0 70 0 70 -270 0 -271 0 3 -67z"/>
<path d="M2285 1467 c-6 -7 -15 -30 -21 -52 -6 -22 -15 -48 -19 -57 -7 -17 5
-18 158 -18 l165 0 20 63 c11 34 18 65 15 70 -8 13 -307 8 -318 -6z"/>
<path d="M2726 1472 c-3 -5 5 -36 17 -70 l21 -62 283 0 c245 0 283 2 283 15 0
8 -4 15 -9 15 -4 0 -11 18 -14 40 -9 73 2 70 -303 70 -150 0 -275 -4 -278 -8z"/>
<path d="M3610 1410 l0 -70 165 0 166 0 -3 68 -3 67 -162 3 -163 2 0 -70z"/>
<path d="M3990 1460 c0 -11 4 -20 9 -20 5 0 11 -8 15 -17 6 -20 25 -51 43 -70
9 -10 99 -13 422 -13 l411 0 0 70 0 70 -450 0 c-443 0 -450 0 -450 -20z"/>
<path d="M5215 1457 c-8 -13 -18 -39 -21 -58 -4 -18 -11 -40 -17 -46 -7 -10
26 -13 161 -13 l171 0 11 43 c6 23 15 52 20 64 5 11 6 24 3 27 -4 3 -75 6
-159 6 -149 0 -154 -1 -169 -23z"/>
<path d="M5660 1465 c0 -9 7 -32 15 -52 8 -19 15 -44 15 -54 0 -18 13 -19 285
-19 323 0 301 -7 266 85 l-19 50 -281 3 c-248 2 -281 0 -281 -13z"/>
<path d="M6560 1410 l0 -70 549 0 548 0 -5 25 c-2 14 -8 25 -13 25 -5 0 -9 9
-9 20 0 12 -7 32 -16 45 l-16 25 -519 0 -519 0 0 -70z"/>
<path d="M8137 1473 c-4 -3 -7 -35 -7 -70 l0 -63 270 0 270 0 0 70 0 70 -263
0 c-145 0 -267 -3 -270 -7z"/>
<path d="M2220 1274 c0 -12 -4 -24 -9 -26 -5 -1 -12 -22 -16 -45 l-7 -43 597
0 597 0 -5 23 c-3 12 -11 43 -18 69 l-12 47 -564 -1 -563 -1 0 -23z"/>
<path d="M3610 1230 l0 -70 165 0 165 0 0 70 0 70 -165 0 -165 0 0 -70z"/>
<path d="M4103 1275 c7 -14 15 -25 20 -25 4 0 7 -7 7 -15 0 -8 4 -15 9 -15 5
0 13 -10 17 -22 4 -13 12 -26 18 -30 6 -4 170 -8 364 -8 l352 0 0 70 0 70
-399 0 -399 0 11 -25z"/>
<path d="M5145 1254 c-3 -24 -10 -46 -16 -49 -5 -4 -9 -15 -9 -26 0 -19 13
-19 601 -19 567 0 600 1 595 18 -2 9 -7 28 -11 42 -4 14 -12 37 -18 52 l-12
27 -561 -1 -562 -1 -7 -43z"/>
<path d="M6560 1230 l0 -70 275 0 275 0 0 65 c0 36 3 65 8 65 4 0 16 -28 28
-63 l20 -62 282 -3 282 -2 -6 27 c-4 16 -11 32 -15 37 -5 6 -9 18 -9 28 0 10
-4 18 -10 18 -5 0 -10 7 -10 15 0 13 -69 15 -560 15 l-560 0 0 -70z"/>
<path d="M8130 1230 l0 -70 270 0 270 0 0 70 0 70 -270 0 -270 0 0 -70z"/>
<path d="M2163 1105 c-7 -8 -13 -20 -13 -27 0 -7 -7 -31 -14 -53 -8 -22 -12
-43 -9 -47 5 -9 1284 -11 1306 -2 12 4 12 11 -1 52 -8 26 -20 57 -25 70 l-10
22 -611 0 c-515 -1 -613 -3 -623 -15z"/>
<path d="M3610 1045 l0 -75 163 2 162 3 0 70 0 70 -162 3 -163 2 0 -75z"/>
<path d="M4220 1101 c0 -11 7 -26 15 -35 8 -8 15 -19 15 -25 0 -6 5 -11 10
-11 6 0 10 -6 10 -13 0 -8 8 -21 18 -30 16 -15 53 -17 310 -17 l292 0 0 75 0
75 -335 0 c-324 0 -335 -1 -335 -19z"/>
<path d="M5095 1098 c-21 -65 -33 -114 -28 -120 2 -5 299 -8 659 -8 725 0 669
-6 639 67 -8 19 -15 43 -15 53 0 10 -7 21 -16 24 -9 3 -289 6 -624 6 l-608 0
-7 -22z"/>
<path d="M6560 1045 l0 -75 275 0 275 0 0 75 0 75 -275 0 -275 0 0 -75z"/>
<path d="M7191 1111 c-7 -5 -9 -10 -5 -12 5 -2 18 -31 30 -64 l21 -60 278 -3
c156 -1 283 2 288 7 5 5 5 16 -1 27 -5 11 -20 40 -32 67 l-23 47 -271 0 c-149
0 -277 -4 -285 -9z"/>
<path d="M8095 1100 c-10 -11 -24 -20 -32 -20 -7 0 -13 -4 -13 -10 0 -17 -116
-12 -130 5 -7 8 -19 15 -26 15 -21 0 -19 -106 2 -114 9 -3 186 -6 395 -6 l379
0 0 75 0 75 -278 0 c-266 0 -280 -1 -297 -20z"/>
<path d="M2100 915 c0 -14 -4 -25 -9 -25 -5 0 -11 -12 -13 -27 -3 -16 -9 -36
-13 -45 -7 -17 6 -18 183 -18 214 0 198 -7 208 86 l7 54 -182 0 -181 0 0 -25z"/>
<path d="M2849 936 c-3 -3 0 -34 5 -70 l10 -66 319 0 318 0 -6 23 c-3 12 -10
31 -15 42 -5 11 -11 32 -14 48 l-6 27 -304 0 c-166 0 -305 -2 -307 -4z"/>
<path d="M3610 870 l0 -70 165 0 165 0 0 70 0 70 -165 0 -165 0 0 -70z"/>
<path d="M4320 930 c0 -5 4 -10 9 -10 5 0 12 -11 15 -25 4 -14 11 -25 16 -25
6 0 10 -7 10 -15 0 -8 5 -15 10 -15 6 0 10 -9 10 -20 0 -19 7 -20 250 -20
l250 0 0 70 0 70 -285 0 c-183 0 -285 -4 -285 -10z"/>
<path d="M5037 933 c-4 -3 -7 -19 -7 -34 0 -15 -4 -29 -8 -31 -5 -1 -12 -18
-15 -35 l-6 -33 188 0 188 0 10 53 c6 28 13 60 18 70 7 16 -5 17 -177 17 -102
0 -188 -3 -191 -7z"/>
<path d="M5785 898 c3 -24 11 -55 17 -70 l10 -28 310 0 310 0 -7 43 c-4 23
-11 44 -16 45 -5 2 -9 15 -9 28 l0 24 -311 0 -311 0 7 -42z"/>
<path d="M6560 870 l0 -70 275 0 275 0 0 70 0 70 -275 0 -275 0 0 -70z"/>
<path d="M7250 930 c0 -6 4 -18 9 -28 11 -21 27 -62 35 -84 5 -17 45 -18 648
-18 l643 0 19 35 c11 19 23 35 28 35 4 0 8 9 8 19 0 11 5 23 10 26 35 21 -19
25 -380 25 l-390 0 0 -43 c0 -24 -3 -47 -7 -50 -6 -7 -33 37 -33 55 0 5 -6 16
-14 24 -12 11 -65 14 -295 14 -183 0 -281 -4 -281 -10z"/>
<path d="M2042 745 c-7 -14 -12 -35 -12 -45 0 -19 8 -20 190 -20 176 0 190 1
190 18 0 10 5 23 11 29 7 7 9 19 6 27 -6 14 -33 16 -190 16 l-184 0 -11 -25z"/>
<path d="M2880 758 c0 -6 5 -27 12 -45 l12 -33 318 0 c276 0 318 2 318 15 0 8
-4 15 -10 15 -5 0 -10 11 -10 24 0 13 -7 27 -16 30 -9 3 -153 6 -320 6 -227 0
-304 -3 -304 -12z"/>
<path d="M3610 725 l0 -45 166 0 165 0 -3 43 -3 42 -162 3 -163 2 0 -45z"/>
<path d="M4435 761 c-3 -5 0 -16 7 -23 7 -8 18 -23 24 -33 10 -19 25 -20 218
-23 l206 -2 0 45 0 45 -224 0 c-126 0 -227 -4 -231 -9z"/>
<path d="M4980 751 c0 -11 -4 -23 -10 -26 -5 -3 -10 -15 -10 -26 0 -19 7 -19
198 -17 l197 3 3 43 3 42 -190 0 c-182 0 -191 -1 -191 -19z"/>
<path d="M5820 760 c-10 -6 -11 -10 -2 -10 7 0 12 -14 12 -35 l0 -35 320 0
320 0 0 25 c0 14 -4 25 -10 25 -5 0 -10 9 -10 20 0 20 -7 20 -307 20 -182 0
-314 -4 -323 -10z"/>
<path d="M6560 720 l0 -50 275 0 275 0 0 50 0 50 -275 0 -275 0 0 -50z"/>
<path d="M7320 752 c0 -32 24 -72 46 -78 12 -3 247 -4 522 -2 384 2 504 6 514
16 6 6 19 12 28 12 21 0 102 55 93 63 -3 4 -276 7 -605 7 -569 0 -598 -1 -598
-18z"/>
<path d="M1795 477 c-33 -20 -43 -33 -59 -72 -20 -48 -20 -66 1 -110 18 -38
60 -54 104 -40 25 8 69 49 69 65 0 20 -37 10 -56 -15 -21 -28 -48 -32 -70 -11
-18 19 -18 105 0 129 20 25 78 33 95 13 16 -19 41 -21 41 -3 -1 45 -78 72
-125 44z"/>
<path d="M3137 475 c-7 -16 8 -29 23 -20 15 9 12 35 -4 35 -8 0 -16 -7 -19
-15z"/>
<path d="M3687 483 c-4 -3 -7 -13 -7 -21 0 -12 3 -12 15 -2 8 7 15 16 15 21 0
11 -14 12 -23 2z"/>
<path d="M3950 475 c-7 -9 -10 -19 -6 -22 8 -9 38 9 44 25 5 17 -23 15 -38 -3z"/>
<path d="M4427 473 c-3 -10 -8 -30 -11 -45 -6 -26 -26 -40 -26 -18 0 6 -14 10
-31 10 -59 0 -103 -84 -74 -141 15 -29 20 -31 53 -25 21 3 47 6 60 6 17 0 22
6 22 24 0 14 5 28 10 31 6 3 10 24 10 45 0 21 5 42 10 45 16 10 12 85 -4 85
-8 0 -17 -8 -19 -17z m-47 -88 c17 -21 15 -71 -4 -90 -23 -23 -56 -19 -57 8
-2 46 4 72 19 84 22 16 27 16 42 -2z"/>
<path d="M4812 472 c-30 -23 -28 -79 3 -96 11 -6 22 -14 25 -17 3 -3 13 -8 23
-12 42 -16 27 -67 -21 -67 -13 0 -33 10 -43 21 -26 30 -53 19 -38 -15 8 -17
22 -26 49 -30 60 -9 97 2 110 34 17 40 10 62 -25 80 -17 8 -32 18 -35 21 -3 3
-13 8 -23 12 -11 4 -17 14 -15 24 4 24 60 29 81 9 20 -20 37 -20 37 -1 0 24
-42 55 -74 55 -17 0 -41 -9 -54 -18z"/>
<path d="M6855 478 c-4 -14 -23 -117 -32 -180 l-5 -38 82 0 c57 0 86 4 96 14
16 16 19 86 4 86 -15 0 -12 19 5 36 44 45 -6 94 -95 94 -32 0 -52 -5 -55 -12z
m124 -42 c17 -20 -23 -56 -61 -56 -25 0 -28 3 -28 35 0 34 1 35 39 35 21 0 44
-6 50 -14z m-9 -109 c0 -33 -18 -47 -61 -47 -44 0 -49 5 -42 43 5 25 9 27 54
27 44 0 49 -2 49 -23z"/>
<path d="M7147 476 c-8 -21 3 -27 19 -11 18 17 18 25 0 25 -8 0 -16 -6 -19
-14z"/>
<path d="M7464 475 c-4 -9 -3 -19 0 -23 9 -8 42 12 39 24 -4 16 -33 16 -39 -1z"/>
<path d="M8042 478 c-7 -7 -12 -25 -12 -41 0 -15 -4 -36 -9 -45 -5 -9 -12 -43
-15 -74 l-7 -58 75 0 c44 0 76 4 76 10 0 6 -22 10 -50 10 l-50 0 0 46 c0 25 4
53 9 62 4 9 11 36 15 60 7 44 -6 56 -32 30z"/>
<path d="M8459 445 c-12 -40 -29 -61 -29 -35 0 6 -16 10 -35 10 -19 0 -35 -4
-35 -10 0 -5 -6 -10 -12 -10 -17 0 -38 -47 -38 -82 0 -16 9 -38 19 -49 17 -18
25 -20 71 -12 l53 8 13 50 c7 28 13 62 14 77 0 15 5 30 10 33 6 3 10 19 10 36
0 45 -26 36 -41 -16z m-43 -59 c8 -8 14 -29 14 -46 0 -52 -43 -78 -76 -46 -16
17 -19 56 -4 56 6 0 10 5 10 10 0 13 22 39 33 40 5 0 15 -6 23 -14z"/>
<path d="M6463 455 c-7 -8 -13 -19 -13 -25 0 -5 -7 -10 -16 -10 -12 0 -14 -5
-8 -17 8 -20 8 -40 -2 -97 -5 -27 -3 -41 7 -47 23 -14 59 -11 59 6 0 8 -9 15
-20 15 -21 0 -28 24 -10 35 6 3 10 20 10 37 0 17 6 36 14 42 9 7 12 22 9 44
-6 35 -12 38 -30 17z"/>
<path d="M8253 454 c-7 -7 -13 -18 -13 -24 0 -5 -6 -10 -12 -10 -9 0 -13 -23
-13 -83 l0 -82 28 -3 c19 -2 27 1 27 12 0 9 -7 16 -16 16 -12 0 -15 6 -9 23 3
12 9 33 12 47 3 14 13 33 21 43 11 13 13 20 5 25 -6 4 -13 17 -14 28 -3 18 -6
20 -16 8z"/>
<path d="M1982 394 c-29 -31 -33 -95 -7 -121 22 -22 86 -23 107 -3 44 45 49
97 13 128 -34 30 -83 28 -113 -4z m81 -8 c37 -29 10 -106 -38 -106 -40 0 -48
60 -13 97 25 27 27 27 51 9z"/>
<path d="M2182 408 c-7 -7 -12 -31 -12 -54 0 -24 -4 -46 -10 -49 -15 -9 -12
-45 3 -45 15 0 37 41 37 66 0 22 39 74 55 74 20 0 25 -24 15 -82 -9 -59 -6
-67 18 -52 19 12 35 94 27 132 -4 17 -12 22 -39 22 -19 0 -37 -6 -40 -12 -5
-10 -7 -10 -12 0 -7 15 -26 16 -42 0z"/>
<path d="M2386 394 c-37 -37 -37 -106 -1 -130 28 -18 77 -14 100 10 12 12 12
16 1 25 -11 9 -18 8 -29 -4 -19 -18 -39 -19 -55 -3 -19 19 -14 51 14 83 21 25
28 27 42 17 44 -31 68 -26 37 8 -26 29 -76 26 -109 -6z"/>
<path d="M2573 398 c-21 -22 -26 -46 -24 -99 2 -47 89 -62 129 -22 11 11 11
14 -2 19 -9 3 -23 1 -31 -6 -22 -18 -60 -8 -63 18 -3 21 0 22 52 22 56 0 56 0
56 31 0 17 -6 37 -14 45 -23 22 -79 18 -103 -8z m77 -17 c15 -29 13 -31 -30
-31 -44 0 -48 5 -23 32 21 23 40 23 53 -1z"/>
<path d="M2752 404 c-24 -27 -10 -58 36 -78 23 -11 42 -25 42 -33 0 -17 -61
-18 -78 -1 -9 9 -15 9 -23 1 -14 -14 26 -43 61 -43 34 0 70 26 70 51 0 26 -23
49 -47 49 -24 0 -43 19 -36 36 6 16 44 19 59 4 6 -6 18 -8 27 -4 14 5 14 8 2
20 -18 19 -96 18 -113 -2z"/>
<path d="M2942 405 c-7 -9 -12 -28 -10 -42 2 -21 11 -30 36 -37 21 -6 32 -15
32 -27 0 -22 -26 -25 -65 -7 -35 16 -45 0 -15 -24 28 -23 89 -20 115 5 19 20
20 57 0 57 -8 0 -15 5 -15 10 0 6 -8 10 -18 10 -24 0 -42 19 -35 36 6 16 53
19 53 4 0 -5 7 -10 16 -10 9 0 14 7 12 18 -4 23 -87 29 -106 7z"/>
<path d="M3111 363 c-5 -32 -13 -68 -17 -80 -4 -15 -2 -23 6 -23 23 0 40 29
40 69 0 22 5 43 10 46 18 11 11 45 -9 45 -15 0 -21 -12 -30 -57z"/>
<path d="M3213 395 c-16 -17 -23 -37 -23 -65 0 -44 12 -63 48 -74 29 -9 92 11
92 30 0 8 5 14 10 14 18 0 11 86 -8 103 -28 26 -92 21 -119 -8z m78 -5 c13 -7
19 -21 19 -43 0 -44 -20 -70 -51 -65 -20 2 -25 9 -27 42 -2 27 2 44 15 56 22
23 20 22 44 10z"/>
<path d="M3420 401 c0 -11 -4 -23 -10 -26 -5 -3 -10 -24 -10 -45 0 -21 -4 -42
-10 -45 -17 -10 -11 -25 9 -25 12 0 22 9 26 23 26 97 45 124 81 110 12 -4 14
-13 9 -37 -18 -91 -18 -96 3 -96 15 0 21 8 25 38 3 20 9 49 12 65 5 17 3 33
-5 42 -15 18 -76 20 -84 3 -5 -10 -7 -10 -12 0 -9 19 -34 14 -34 -7z"/>
<path d="M3626 405 c-27 -21 -13 -30 23 -15 34 14 51 7 51 -21 0 -16 -7 -19
-40 -19 -22 0 -40 -4 -40 -10 0 -5 -7 -10 -15 -10 -20 0 -21 -66 -1 -73 8 -3
39 -3 70 0 l56 6 0 78 0 79 -42 0 c-24 0 -52 -7 -62 -15z m64 -84 c0 -27 -15
-41 -41 -41 -30 0 -38 17 -17 38 14 14 58 16 58 3z"/>
<path d="M3797 393 c-17 -83 -24 -129 -20 -133 11 -12 39 21 44 54 7 40 15 52
50 70 29 14 36 36 12 36 -11 0 -25 -6 -32 -12 -11 -10 -14 -10 -18 0 -8 22
-31 13 -36 -15z"/>
<path d="M3933 405 c-7 -8 -13 -32 -13 -54 0 -22 -4 -43 -10 -46 -18 -11 -11
-45 9 -45 15 0 21 12 30 58 5 31 13 67 17 80 7 25 -13 30 -33 7z"/>
<path d="M4032 404 c-11 -12 -10 -15 4 -21 9 -3 20 0 24 7 11 18 52 2 48 -18
-2 -11 -16 -19 -38 -22 -44 -6 -80 -30 -80 -52 0 -10 5 -18 10 -18 6 0 10 -7
10 -16 0 -14 7 -15 38 -10 20 3 47 6 60 6 18 0 22 6 22 30 0 16 5 41 12 55 9
20 8 31 -2 50 -11 21 -21 25 -54 25 -23 -1 -47 -7 -54 -16z m56 -96 c-3 -26
-46 -38 -58 -17 -11 17 10 38 38 39 19 0 23 -5 20 -22z"/>
<path d="M4506 395 c-23 -22 -27 -32 -24 -72 3 -41 7 -50 30 -61 34 -16 92 -3
96 21 2 10 -3 17 -12 17 -9 0 -16 -4 -16 -10 0 -14 -43 -13 -58 2 -27 27 -13
38 48 38 59 0 60 0 60 28 0 61 -74 83 -124 37z m80 -9 c24 -25 16 -36 -27 -36
-40 0 -42 4 -16 38 12 16 25 15 43 -2z"/>
<path d="M5006 404 c-9 -22 -8 -24 9 -24 8 0 15 5 15 11 0 21 45 4 48 -18 3
-20 -1 -23 -34 -23 -25 0 -42 -7 -55 -22 -22 -25 -24 -38 -6 -61 10 -14 22
-16 62 -11 48 6 51 8 63 45 16 51 15 87 -2 105 -20 20 -92 19 -100 -2z m64
-83 c0 -25 -14 -41 -36 -41 -17 0 -24 6 -24 18 0 10 3 22 7 25 10 10 53 8 53
-2z"/>
<path d="M5182 383 c-6 -21 -13 -49 -15 -63 -3 -14 -8 -33 -12 -42 -5 -14 -2
-18 13 -18 22 0 32 18 32 61 0 16 5 29 10 29 6 0 10 6 10 13 0 7 10 18 21 25
18 12 24 11 37 -2 14 -13 14 -21 4 -49 -18 -50 -15 -77 7 -77 16 0 20 10 26
69 4 39 4 75 0 80 -9 15 -72 14 -79 -1 -5 -10 -7 -10 -12 0 -11 24 -31 12 -42
-25z"/>
<path d="M5398 406 c-10 -7 -18 -18 -18 -25 0 -6 -4 -11 -10 -11 -17 0 -12
-80 7 -98 22 -22 85 -22 108 1 23 23 12 34 -19 18 -32 -18 -60 -10 -64 16 -3
20 2 22 55 25 67 3 80 23 42 64 -25 27 -73 32 -101 10z m70 -18 c23 -23 13
-38 -23 -38 -22 0 -35 5 -35 13 0 16 20 37 35 37 6 0 16 -5 23 -12z"/>
<path d="M5580 405 c-18 -22 -4 -31 25 -15 19 10 27 10 39 1 24 -20 8 -41 -31
-41 -36 0 -73 -28 -73 -56 0 -22 32 -46 54 -40 12 3 33 6 49 6 20 0 27 5 27
19 0 11 5 23 10 26 15 9 12 84 -4 101 -19 19 -80 18 -96 -1z m58 -97 c-4 -31
-58 -40 -58 -10 0 25 8 32 37 32 20 0 24 -5 21 -22z"/>
<path d="M5752 393 c-6 -16 -13 -44 -15 -63 -3 -19 -7 -41 -9 -49 -1 -8 4 -16
13 -18 12 -3 20 11 33 56 18 63 36 87 61 77 17 -6 21 -61 5 -71 -16 -10 -12
-65 5 -65 8 0 15 9 15 20 0 11 5 20 10 20 6 0 10 13 10 30 0 35 27 70 53 70
20 0 20 -17 1 -107 -5 -28 -4 -33 14 -33 21 0 32 38 32 118 0 38 -2 42 -25 42
-14 0 -35 -6 -46 -12 -17 -10 -23 -10 -26 0 -3 6 -20 12 -38 12 -18 0 -36 -6
-39 -12 -5 -10 -7 -10 -12 0 -10 21 -31 13 -42 -15z"/>
<path d="M6052 394 c-31 -36 -38 -72 -19 -103 22 -36 61 -49 94 -31 31 18 41
40 19 40 -9 0 -16 -4 -16 -10 0 -17 -57 -12 -64 6 -12 30 -6 34 49 34 l55 0 0
33 c0 42 -15 57 -59 57 -26 0 -42 -8 -59 -26z m72 0 c9 -3 16 -15 16 -25 0
-15 -7 -19 -35 -19 -37 0 -44 11 -22 35 14 16 19 17 41 9z"/>
<path d="M6237 413 c-4 -3 -7 -24 -7 -45 0 -21 -4 -38 -10 -38 -5 0 -10 -16
-10 -35 0 -48 24 -46 38 4 7 21 12 44 12 51 0 16 39 50 57 50 12 0 14 -12 11
-52 -2 -29 -6 -59 -9 -67 -2 -8 3 -16 13 -18 11 -3 20 6 27 30 14 40 17 99 7
115 -10 16 -63 15 -69 0 -4 -10 -7 -10 -18 0 -14 13 -32 16 -42 5z"/>
<path d="M6570 410 c0 -5 -6 -10 -12 -10 -16 0 -38 -46 -38 -79 1 -46 25 -66
79 -65 64 1 84 21 85 83 1 60 -18 81 -73 81 -23 0 -41 -4 -41 -10z m76 -46 c4
-14 1 -38 -6 -54 -10 -23 -19 -30 -41 -30 -32 0 -44 24 -34 69 6 29 40 52 63
44 7 -3 15 -16 18 -29z"/>
<path d="M7091 404 c-18 -21 -6 -29 24 -16 37 17 45 15 45 -13 0 -22 -4 -25
-36 -25 -43 0 -64 -19 -64 -58 0 -36 12 -42 73 -35 37 4 47 10 47 24 0 10 5
21 10 24 15 9 12 84 -4 101 -19 18 -77 17 -95 -2z m60 -96 c-9 -26 -61 -39
-61 -16 0 21 21 38 47 38 19 0 21 -3 14 -22z"/>
<path d="M7268 398 c-10 -12 -18 -26 -18 -31 0 -14 24 -33 55 -44 17 -5 31
-17 33 -26 3 -13 -4 -17 -31 -17 -20 0 -37 5 -39 12 -3 7 -12 9 -22 5 -17 -7
-17 -9 4 -27 36 -31 120 -24 120 11 0 11 5 19 12 19 6 0 1 11 -12 25 -13 14
-31 25 -41 25 -25 0 -45 28 -31 42 9 9 21 9 48 -1 41 -15 54 -9 31 14 -24 23
-88 19 -109 -7z"/>
<path d="M7454 406 c-6 -7 -14 -30 -17 -52 -3 -21 -9 -51 -12 -66 -6 -23 -4
-28 12 -28 19 0 28 24 48 128 7 34 -9 44 -31 18z"/>
<path d="M7557 405 c-22 -16 -38 -78 -30 -117 4 -22 12 -29 39 -34 50 -9 110
34 70 49 -8 3 -17 -1 -20 -9 -3 -8 -17 -14 -31 -14 -23 0 -25 4 -25 41 0 30 6
47 22 60 26 23 37 24 44 4 7 -17 44 -21 44 -4 0 36 -76 52 -113 24z"/>
<path d="M7750 410 c0 -5 -6 -10 -12 -10 -16 0 -38 -46 -38 -79 1 -46 25 -66
79 -66 63 0 84 21 85 84 1 60 -18 81 -73 81 -23 0 -41 -4 -41 -10z m69 -29
c23 -20 23 -20 5 -60 -15 -34 -23 -41 -45 -41 -19 0 -30 6 -34 20 -10 32 4 76
28 88 12 6 22 11 23 11 1 1 11 -8 23 -18z"/>
<path d="M8546 405 c-17 -13 -18 -15 -2 -21 9 -3 23 -1 31 6 20 16 45 5 45
-20 0 -17 -6 -20 -38 -20 -29 0 -44 -6 -60 -25 -27 -30 -27 -31 -4 -55 15 -16
27 -19 68 -14 l50 6 12 52 c7 28 12 57 12 65 0 38 -75 55 -114 26z m64 -84 c0
-25 -14 -41 -36 -41 -17 0 -24 6 -24 18 0 10 3 22 7 25 10 10 53 8 53 -2z"/>
</g>
</svg>
